<svg id="Layer_5" enable-background="new 0 0 64 64" height="512" viewBox="0 0 64 64" width="512" xmlns="http://www.w3.org/2000/svg"><circle cx="26" cy="26" r="1"/><circle cx="38" cy="26" r="1"/><path d="m32 34c-1.103 0-2-.897-2-2h-2c0 2.206 1.794 4 4 4s4-1.794 4-4h-2c0 1.103-.897 2-2 2z"/><path d="m22 13.417-1.816-.836c-.321.698-.581 1.427-.772 2.169l1.938.499c.16-.625.379-1.242.65-1.832z"/><path d="m32 7v-2c-4.164 0-8.109 2.024-10.553 5.416l1.623 1.169c2.069-2.871 5.407-4.585 8.93-4.585z"/><circle cx="40" cy="16" r="1"/><path d="m53.612 50.077c.253-1.343.388-2.711.388-4.077 0-3.812-.996-7.57-2.88-10.869-1.387-2.43-2.12-5.269-2.12-8.208v-8.923c0-9.374-7.626-17-17-17s-17 7.626-17 17v8.924c0 2.914-.751 5.782-2.171 8.295-1.971 3.489-2.945 7.462-2.817 11.49.035 1.108.181 2.231.395 3.351-3.38 2.958-5.407 7.261-5.407 11.94v1h54v-1c0-4.67-2.019-8.965-5.388-11.923zm-41.602-3.432c-.115-3.662.771-7.272 2.561-10.442 1.589-2.813 2.429-6.021 2.429-9.279v-5.924-3c0-8.271 6.729-15 15-15s15 6.729 15 15v3 5.923c0 3.287.824 6.468 2.384 9.2 1.712 2.997 2.616 6.413 2.616 9.877 0 .905-.069 1.811-.191 2.708-.839-.547-1.732-1.03-2.686-1.42l-10.259-4.198c-1.133-.462-1.864-1.552-1.864-2.776v-.718c4.896-3.383 7.965-8.982 7.996-15.151 1.192-.693 2.004-1.97 2.004-3.445 0-1.607-.948-2.992-2.334-3.626.217-.42.334-.888.334-1.374 0-.666-.215-1.298-.612-1.817-.087-.648-.382-1.248-.853-1.719-.471-.47-1.069-.765-1.718-.851-1.037-.795-2.598-.795-3.635 0-.648.086-1.247.381-1.718.852s-.766 1.07-.853 1.718c-.396.519-.611 1.151-.611 1.817s.215 1.298.612 1.817c.087.648.382 1.248.853 1.719.471.47 1.069.765 1.718.851.518.398 1.151.613 1.817.613s1.299-.215 1.817-.613c.648-.086 1.247-.381 1.718-.852.109-.109.207-.227.297-.349.694.317 1.168 1.01 1.168 1.814 0 1.103-.897 2-2 2h-1c-5.96 0-7.336-3.559-7.853-6.234-.197-1.023-1.1-1.766-2.147-1.766s-1.95.742-2.146 1.765c-.518 2.676-1.894 6.235-7.854 6.235h-1c-1.103 0-2-.897-2-2s.897-2 2-2 2 .897 2 2h2c0-2.206-1.794-4-4-4s-4 1.794-4 4c0 1.475.812 2.752 2.004 3.446.031 6.168 3.1 11.767 7.996 15.151v.718c0 1.224-.731 2.313-1.864 2.777l-10.259 4.197c-.951.389-1.841.87-2.678 1.415-.097-.691-.167-1.379-.189-2.059zm3.625 2.494 3.365-1.377v4.238c0 1.654 1.346 3 3 3h20c1.654 0 3-1.346 3-3v-4.237l3.365 1.377c.216.088.425.188.635.286v11.574h-34v-11.575c.21-.098.419-.197.635-.286zm16.365-9.197c-6.389-2.272-10.712-8.188-10.975-14.942h.975c5.508 0 8.811-2.643 9.816-7.856.033-.168.335-.167.367 0 1.006 5.213 4.309 7.856 9.817 7.856h.975c-.263 6.754-4.586 12.67-10.975 14.942zm-.316 2.007.316.105.316-.105c.947-.316 1.855-.702 2.719-1.153.102 1.066.53 2.051 1.218 2.828-.902 1.461-2.505 2.376-4.253 2.376s-3.351-.915-4.253-2.376c.688-.777 1.115-1.762 1.218-2.828.863.45 1.772.837 2.719 1.153zm7.215 3.317c.06.239.101.483.101.734 0 1.654-1.346 3-3 3-.967 0-1.841-.467-2.394-1.205 1.741-.412 3.27-1.468 4.254-2.976.083.039.16.088.247.123zm-13.005-.324c.086-.035.164-.084.247-.123.984 1.508 2.513 2.564 4.254 2.976-.554.738-1.428 1.205-2.395 1.205-1.654 0-3-1.346-3-3 0-.251.042-.495.102-.734zm-2.882 1.179c.066 2.7 2.273 4.879 4.988 4.879 1.618 0 3.078-.784 4-2.021.922 1.237 2.382 2.021 4 2.021 2.715 0 4.922-2.179 4.988-4.879l2.012.823v5.056c0 .551-.448 1-1 1h-20c-.552 0-1-.449-1-1v-5.056zm14.281-29.414c-.189-.189-.293-.44-.293-.707s.104-.518.293-.707l.293-.293v-.415c0-.267.104-.519.293-.707.188-.189.44-.293.707-.293h.415l.293-.294c.375-.377 1.037-.377 1.412 0l.293.294h.415c.267 0 .519.104.707.292.188.189.293.44.293.708v.415l.293.293c.189.189.293.44.293.707s-.104.518-.293.707l-.293.293v.415c0 .267-.104.519-.293.707-.188.189-.44.293-.707.293h-.415l-.293.294c-.375.377-1.037.377-1.412 0l-.293-.294h-.415c-.267 0-.519-.104-.707-.292-.188-.189-.293-.44-.293-.708v-.415zm-24.293 33.856v10.437h-5.965c.302-4.252 2.517-8.066 5.965-10.437zm38 10.437v-10.437c3.448 2.37 5.663 6.184 5.965 10.437z"/><path d="m17 57h2v2h-2z"/><path d="m21 57h22v2h-22z"/><path d="m45 57h2v2h-2z"/></svg>